<svg width="16" height="20" viewBox="0 0 16 20" fill="none" xmlns="http://www.w3.org/2000/svg">
<path d="M15.5 9.12999L1.50001 1.04999C1.34799 0.962222 1.17554 0.916016 1.00001 0.916016C0.824471 0.916016 0.652027 0.962222 0.500008 1.04999C0.347404 1.13809 0.220789 1.26496 0.132986 1.41774C0.0451825 1.57051 -0.000691684 1.74378 7.88292e-06 1.91999V18.08C-0.000691684 18.2562 0.0451825 18.4295 0.132986 18.5822C0.220789 18.735 0.347404 18.8619 0.500008 18.95C0.652027 19.0378 0.824471 19.084 1.00001 19.084C1.17554 19.084 1.34799 19.0378 1.50001 18.95L15.5 10.87C15.6539 10.7828 15.7819 10.6563 15.871 10.5035C15.96 10.3506 16.007 10.1769 16.007 9.99999C16.007 9.8231 15.96 9.64937 15.871 9.49653C15.7819 9.34369 15.6539 9.21721 15.5 9.12999ZM2.00001 16.35V3.64999L13 9.99999L2.00001 16.35Z" fill="white"/>
</svg>
