<svg width="19" height="16" viewBox="0 0 19 16" fill="none" xmlns="http://www.w3.org/2000/svg">
<path fill-rule="evenodd" clip-rule="evenodd" d="M18.8181 2.1461C18.1356 2.44856 17.4032 2.65368 16.6336 2.74525C17.4194 2.27474 18.0208 1.52844 18.3059 0.641891C17.5689 1.07762 16.7553 1.39401 15.8885 1.56553C15.1943 0.825012 14.2069 0.36377 13.1118 0.36377C11.0108 0.36377 9.30722 2.06731 9.30722 4.16719C9.30722 4.46501 9.34083 4.75589 9.40574 5.03404C6.24434 4.87525 3.44104 3.36062 1.56483 1.05907C1.23686 1.61998 1.05028 2.27356 1.05028 2.97122C1.05028 4.29119 1.72243 5.45586 2.74225 6.13725C2.11877 6.11641 1.53237 5.94489 1.01901 5.6598V5.70732C1.01901 7.54992 2.33086 9.08774 4.07031 9.43774C3.75161 9.5235 3.41555 9.57101 3.06789 9.57101C2.82222 9.57101 2.58464 9.54668 2.35171 9.50032C2.8361 11.0126 4.24067 12.1124 5.90483 12.1426C4.6034 13.1624 2.96243 13.7685 1.1801 13.7685C0.873008 13.7685 0.570523 13.7499 0.272705 13.7163C1.95655 14.7976 3.95561 15.428 6.10416 15.428C13.1026 15.428 16.928 9.63128 16.928 4.6041L16.9153 4.11159C17.6627 3.57847 18.3094 2.90865 18.8181 2.1461Z" fill="#22C55E"/>
</svg>
